<svg width="48" height="48" viewBox="0 0 48 48" fill="none" xmlns="http://www.w3.org/2000/svg">
<path d="M12.5 27.5H35.4999V25.2308H12.5V27.5ZM12.5 21.1346H35.4999V18.8654H12.5V21.1346ZM12.5 14.7692H35.4999V12.5001H12.5V14.7692ZM42.9999 42.0768L35.923 35H7.88465C7.10035 35 6.4235 34.7153 5.8541 34.1459C5.2847 33.5765 5 32.8996 5 32.1153V7.88471C5 7.10041 5.2847 6.42356 5.8541 5.85416C6.4235 5.28476 7.10035 5.00006 7.88465 5.00006H40.1153C40.8996 5.00006 41.5764 5.28476 42.1458 5.85416C42.7152 6.42356 42.9999 7.10041 42.9999 7.88471V42.0768ZM7.88465 32.7308H36.9153L40.7307 36.7692V7.88471C40.7307 7.73084 40.6666 7.5898 40.5384 7.46156C40.4102 7.33336 40.2691 7.26926 40.1153 7.26926H7.88465C7.73078 7.26926 7.58973 7.33336 7.4615 7.46156C7.3333 7.5898 7.2692 7.73084 7.2692 7.88471V32.1153C7.2692 32.2692 7.3333 32.4102 7.4615 32.5385C7.58973 32.6667 7.73078 32.7308 7.88465 32.7308Z"/>
</svg>
