<svg width="48" height="48" viewBox="0 0 48 48" fill="none" xmlns="http://www.w3.org/2000/svg">
<path d="M24 4C12.978 4 4 12.978 4 24C4 35.022 12.978 44 24 44C35.022 44 44 35.022 44 24C44 12.978 35.022 4 24 4ZM24 8C32.8602 8 40 15.1398 40 24C40 32.8602 32.8602 40 24 40C15.1398 40 8 32.8602 8 24C8 15.1398 15.1398 8 24 8ZM21.3789 16C18.2989 16 15.3923 16.3433 12.6562 17.0312C11.9722 17.2013 11.457 17.7123 11.457 18.7383C11.457 19.7643 12.142 20.6212 13.168 20.4492C13.68 20.4492 13.8533 20.2773 14.1953 20.2773C16.4193 19.7633 18.9849 19.4219 21.3789 19.4219C26.1689 19.4219 31.1288 20.618 34.5508 22.5C35.0628 22.67 35.2322 22.8438 35.5742 22.8438C36.6022 22.8438 37.287 22.1588 37.457 21.1328C37.457 20.2788 36.9476 19.7639 36.4336 19.4219C32.1576 17.1979 26.6809 16 21.3789 16ZM21.0391 21.9883C18.1311 21.9883 16.0793 22.5016 14.0273 23.0156C13.1713 23.3576 12.8281 23.6987 12.8281 24.5547C12.8281 25.2387 13.3393 25.9219 14.1953 25.9219C14.5373 25.9219 14.7088 25.922 15.0508 25.75C16.5908 25.408 18.6432 25.0664 20.8672 25.0664C25.3132 25.0664 29.4201 26.0907 32.3281 27.9727C32.6701 28.1427 33.0135 28.3164 33.3555 28.3164C34.2095 28.3164 34.7205 27.6313 34.8945 26.7773C34.8945 26.2653 34.5531 25.7522 34.0391 25.4102C30.2751 23.1862 25.8291 21.9883 21.0391 21.9883ZM21.5508 28.0156C19.1568 28.0156 16.931 28.3571 14.707 28.8711C14.023 28.8711 13.6836 29.3824 13.6836 30.0664C13.6836 30.7504 14.1949 31.2656 14.8789 31.2656C15.0509 31.2656 15.3924 31.0938 15.7344 31.0938C17.4444 30.7518 19.4969 30.4102 21.3789 30.4102C24.7989 30.4102 28.0512 31.2647 30.6172 32.8047C30.9592 32.9747 31.1307 33.1445 31.4727 33.1445C31.9847 33.1445 32.4978 32.8052 32.8398 31.9492C32.8398 31.2652 32.4982 31.092 32.1562 30.75C29.0763 29.04 25.4848 28.0156 21.5508 28.0156Z"/>
</svg>
