<svg width="48" height="48" viewBox="0 0 48 48" fill="none" xmlns="http://www.w3.org/2000/svg">
<path d="M31.9155 24.7961L24.0617 17.2193C23.1504 16.3504 22.3841 15.3831 21.7628 14.3172C21.1415 13.2512 20.8309 12.0904 20.8309 10.8347C20.8309 9.23893 21.3667 7.86756 22.4383 6.72056C23.5098 5.57356 24.8343 5.00006 26.4116 5.00006C27.5321 5.00006 28.5527 5.30776 29.4732 5.92316C30.3937 6.53856 31.2078 7.286 31.9155 8.16546C32.6232 7.286 33.4341 6.53856 34.3482 5.92316C35.2623 5.30776 36.286 5.00006 37.4193 5.00006C38.9966 5.00006 40.3211 5.57356 41.3927 6.72056C42.4643 7.86756 43.0001 9.23893 43.0001 10.8347C43.0001 12.0872 42.6835 13.245 42.0505 14.3082C41.4175 15.3714 40.6507 16.3418 39.7501 17.2193L31.9155 24.7961ZM31.9155 21.6847L38.0373 15.6894C38.7292 15.0193 39.3511 14.2874 39.903 13.4937C40.4549 12.6999 40.7309 11.8136 40.7309 10.8347C40.7309 9.86286 40.4169 9.02568 39.7889 8.32311C39.1609 7.62054 38.3711 7.26926 37.4193 7.26926C36.632 7.26926 35.921 7.50068 35.2865 7.96351C34.6519 8.42635 34.0859 8.97571 33.5885 9.61161L31.9155 11.7077L30.2232 9.61161C29.7386 8.97571 29.179 8.42635 28.5445 7.96351C27.9099 7.50068 27.1989 7.26926 26.4116 7.26926C25.4598 7.26926 24.67 7.62054 24.042 8.32311C23.414 9.02568 23.1001 9.86286 23.1001 10.8347C23.1001 11.8136 23.3728 12.6999 23.9183 13.4937C24.4638 14.2874 25.091 15.0216 25.8001 15.6962L31.9155 21.6847ZM12.5001 37.8846L28.0617 42.5L40.3655 38.6577C40.3911 37.9269 40.1693 37.3558 39.7 36.9443C39.2307 36.5327 38.682 36.327 38.054 36.327H28.0055C27.4096 36.327 26.8117 36.2885 26.2117 36.2116C25.6117 36.1346 25.0168 35.9936 24.4271 35.7885L19.8001 34.377L20.5771 32.0578L25.104 33.6578C25.5476 33.8296 26.0283 33.9424 26.5463 33.9962C27.0642 34.0501 27.6412 34.0706 28.2771 34.0578H30.3271C30.3271 33.3193 30.1194 32.7045 29.704 32.2135C29.2886 31.7225 28.7732 31.3565 28.1578 31.1155L17.1424 26.9655L17.0271 26.9366C17.0014 26.9302 16.9693 26.927 16.9309 26.927H12.5001V37.8846ZM3.40405 43V24.6578H16.8583C17.0383 24.6578 17.2114 24.6758 17.3777 24.7117C17.5439 24.7476 17.7091 24.7899 17.8732 24.8386L28.9078 28.9578C29.9437 29.3347 30.8328 29.9629 31.5751 30.8424C32.3174 31.7219 32.6885 32.7937 32.6885 34.0578H38.054C39.5123 34.0578 40.7012 34.5719 41.6208 35.6001C42.5403 36.6282 43.0001 37.8449 43.0001 39.25V40.3577L28.2732 44.8692L12.5001 40.2846V43L3.40405 43ZM5.67325 40.7308H10.1809V26.927H5.67325V40.7308Z"/>
</svg>
