<?xml version="1.0" encoding="UTF-8" standalone="no"?>
<!-- Created with Inkscape (http://www.inkscape.org/) -->

<svg
   width="9.3970003mm"
   height="10.441mm"
   viewBox="0 0 9.3970003 10.441"
   version="1.1"
   id="svg5"
   xml:space="preserve"
   inkscape:version="1.2.2 (732a01da63, 2022-12-09)"
   sodipodi:docname="thebeatchess-icon.svg"
   xmlns:inkscape="http://www.inkscape.org/namespaces/inkscape"
   xmlns:sodipodi="http://sodipodi.sourceforge.net/DTD/sodipodi-0.dtd"
   xmlns="http://www.w3.org/2000/svg"
   xmlns:svg="http://www.w3.org/2000/svg"><sodipodi:namedview
     id="namedview7"
     pagecolor="#505050"
     bordercolor="#eeeeee"
     borderopacity="1"
     inkscape:showpageshadow="0"
     inkscape:pageopacity="0"
     inkscape:pagecheckerboard="0"
     inkscape:deskcolor="#505050"
     inkscape:document-units="mm"
     showgrid="false"
     inkscape:zoom="8"
     inkscape:cx="33.5625"
     inkscape:cy="28.125"
     inkscape:window-width="1920"
     inkscape:window-height="1017"
     inkscape:window-x="-8"
     inkscape:window-y="-8"
     inkscape:window-maximized="1"
     inkscape:current-layer="g37772" /><defs
     id="defs2"><inkscape:path-effect
       effect="bspline"
       id="path-effect288"
       is_visible="true"
       lpeversion="1"
       weight="33.333333"
       steps="2"
       helper_size="0"
       apply_no_weight="true"
       apply_with_weight="true"
       only_selected="false" /><inkscape:path-effect
       effect="bspline"
       id="path-effect284"
       is_visible="true"
       lpeversion="1"
       weight="33.333333"
       steps="2"
       helper_size="0"
       apply_no_weight="true"
       apply_with_weight="true"
       only_selected="false" /></defs><g
     inkscape:groupmode="layer"
     id="layer2"
     inkscape:label="Layer 2" /><g
     inkscape:label="Layer 1"
     inkscape:groupmode="layer"
     id="layer1"><path
       style="fill:none;stroke-width:0.335281"
       d="M 172.16662,403.67793 V 371.9939 h 214.74727 214.74727 v 31.68403 31.68402 H 386.91389 172.16662 Z m 137.63272,19.27876 c 7.3322,-0.62947 11.04608,-1.84834 13.69104,-4.4933 1.89021,-1.89021 2.40332,-3.33359 2.39554,-6.73873 -0.006,-2.72745 -0.10901,-3.21416 -1.06926,-5.06307 -0.58432,-1.12504 -1.44875,-2.50471 -1.92098,-3.06592 -0.47223,-0.56121 -0.8586,-1.16601 -0.8586,-1.34399 0,-0.17798 0.45639,-1.21234 1.01419,-2.29856 2.83422,-5.51919 1.77549,-10.69888 -2.81877,-13.79048 -3.07014,-2.06598 -5.9833,-2.54538 -18.99967,-3.12664 -7.44211,-0.33234 -18.18287,-0.22887 -47.593,0.45848 l -2.84989,0.0666 v 19.61392 19.61392 l 11.68346,0.23888 c 6.4259,0.13138 12.98901,0.29936 14.58471,0.37328 5.32779,0.24683 28.32569,-0.0653 32.74123,-0.4444 z m 41.11583,-0.14773 c 5.0274,-1.06561 8.24278,-3.91493 8.87425,-7.86394 l 0.22008,-1.37631 h -9.43071 -9.43071 v -2.80299 -2.803 l 4.61011,-0.17612 c 5.31712,-0.20313 7.61401,-0.86669 9.56765,-2.76404 1.21165,-1.17674 2.58628,-4.21476 2.58628,-5.71586 v -0.82562 h -8.38202 -8.38202 v -2.34697 -2.34696 h 11.84911 11.84911 l 0.41991,1.92786 c 0.85164,3.90995 4.13406,13.11915 6.19788,17.3888 3.10321,6.41995 5.29324,8.51163 8.91183,8.51163 3.4955,0 5.4062,-1.75692 8.20407,-7.54381 2.64393,-5.46848 4.81872,-11.30163 7.40644,-19.86538 0.0963,-0.31877 1.89504,-0.4191 7.51334,-0.4191 h 7.38669 v 14.58471 14.58471 h 5.02921 5.02921 v -14.50394 -14.50394 l 2.59843,-0.58723 c 1.42913,-0.32299 3.35897,-0.94128 4.28853,-1.37399 1.77732,-0.82734 3.50761,-2.55824 3.50549,-3.50672 -0.002,-1.09748 -1.25324,-2.58662 -2.94685,-3.5084 -2.40876,-1.31101 -5.27723,-1.5634 -18.89642,-1.66263 -13.47653,-0.0982 -15.13919,0.12646 -19.62577,2.65189 -5.80637,3.26831 -6.76381,3.63453 -9.50221,3.63453 -2.37042,0 -2.71816,-0.10069 -5.69977,-1.65033 -1.74643,-0.90769 -4.00515,-2.07841 -5.01937,-2.60161 -3.96838,-2.04713 -10.04629,-2.51551 -27.57684,-2.12512 l -11.31572,0.25199 v 19.73061 19.73061 l 3.26899,0.10961 c 8.93872,0.29971 14.75735,0.21948 16.8918,-0.23294 z m -150.92025,-14.4371 v -14.58471 h 6.91373 6.91373 l -0.24859,14.41707 -0.2486,14.41707 h 5.40497 5.40497 v -7.37618 -7.37617 h 5.86741 5.86741 v 7.54381 7.54382 h 5.02921 5.02921 v -19.78156 -19.78156 h -2.46402 c -1.35521,0 -3.61835,0.0976 -5.02921,0.21684 l -2.56519,0.21683 v 7.32698 7.32698 h -5.86087 -5.86088 l -0.0904,-7.29236 -0.0904,-7.29235 -6.70562,-0.20605 c -3.68808,-0.11333 -13.6082,-0.22648 -22.0447,-0.25146 l -15.33909,-0.0454 v 5.19685 5.19685 h 4.86157 4.86157 v 14.36119 c 0,7.89865 0.10058,14.46177 0.22352,14.5847 0.12294,0.12294 2.46152,0.22353 5.19685,0.22353 h 4.97333 z m 255.22756,13.60545 c 2.56611,-0.98974 5.88,-3.23875 6.66209,-4.5213 1.37016,-2.24693 0.43819,-4.27641 -2.57609,-5.60977 -1.14551,-0.50671 -2.69082,-0.74458 -6.15106,-0.94683 -6.4211,-0.37532 -7.81708,-1.12943 -8.91124,-4.81384 -0.92608,-3.11848 -0.40106,-6.01888 1.50899,-8.3361 1.66207,-2.01639 3.55133,-2.66822 8.57052,-2.95699 4.85572,-0.27936 6.17949,-0.72009 7.01484,-2.33548 1.78932,-3.46016 -1.05999,-6.83532 -6.94085,-8.22182 -9.58966,-2.26091 -18.18508,3.18005 -20.91615,13.24006 -0.79285,2.9205 -0.80709,8.77215 -0.0285,11.73482 2.33881,8.90017 8.6659,13.97367 16.9946,13.62743 1.89717,-0.0789 3.49274,-0.36643 4.7729,-0.86018 z m 23.72596,-6.56456 v -7.54381 h 5.86741 5.86741 v 7.54381 7.54382 h 5.19685 5.19685 v -19.78156 -19.78156 h -5.19685 -5.19685 v 7.54381 7.54382 h -5.86741 -5.86741 v -7.54382 -7.54381 h -5.02921 -5.02921 v 19.78156 19.78156 h 5.02921 5.02921 z m 49.82871,6.70938 c 3.6443,-1.08942 4.79508,-3.31916 5.18371,-10.0439 0.61782,-10.69107 0.202,-20.78009 -0.96481,-23.40857 -0.86854,-1.95659 -2.99908,-3.78399 -5.16047,-4.42618 -2.39575,-0.71182 -8.5856,-0.97738 -13.57233,-0.58229 -3.2599,0.25828 -4.36995,0.48302 -5.51916,1.11744 -2.53181,1.39772 -3.6395,4.05753 -3.12331,7.49975 l 0.22625,1.50877 h 9.01449 9.01453 v 2.34696 c 0,1.29083 -0.11316,2.35114 -0.25146,2.35624 -0.13831,0.005 -3.64618,0.22724 -7.79528,0.49365 -4.1491,0.26641 -7.88328,0.48855 -8.29819,0.49365 -0.74161,0.009 -0.75439,0.0803 -0.75439,4.20028 v 4.19101 h 8.54966 8.54966 v 2.84988 2.84989 h -9.57069 -9.5707 l 0.21249,1.2573 c 0.36943,2.18591 1.8042,4.75516 3.23377,5.79074 2.66954,1.9338 5.23236,2.35598 13.05241,2.15017 3.77429,-0.0993 6.49791,-0.33213 7.54382,-0.64479 z m 30.63023,-0.47289 c 5.25489,-1.30617 7.91893,-1.34086 12.91673,-0.16822 7.89911,1.8534 11.38452,1.85874 15.393,0.0236 2.36661,-1.08347 5.05348,-3.59526 6.15079,-5.74995 1.02884,-2.02034 1.39239,-5.75394 0.75519,-7.75603 -1.14267,-3.59014 -3.21987,-5.58063 -10.24504,-9.81735 -3.51954,-2.12255 -7.16944,-4.91044 -6.80932,-5.20112 0.0659,-0.0532 1.47775,0.0369 3.13739,0.20033 5.91385,0.58223 9.4412,-0.34071 12.42108,-3.25 1.00561,-0.98177 1.82835,-1.93491 1.82835,-2.11808 0,-0.38635 -3.99943,-2.08745 -6.7499,-2.87096 -1.0386,-0.29586 -3.04992,-0.69949 -4.4696,-0.89695 -10.24651,-1.42515 -18.21489,5.91311 -15.63695,14.40041 0.59633,1.96322 1.06462,2.7435 2.68838,4.47931 1.90859,2.04026 3.97505,3.41039 11.50874,7.63062 1.42776,0.7998 2.53751,1.51263 2.46606,1.58405 -0.0714,0.0714 -3.37467,-0.4829 -7.3405,-1.23185 -3.96587,-0.74894 -7.33876,-1.3562 -7.4953,-1.34945 -0.15654,0.007 -1.039,0.99033 -1.96102,2.18574 l -1.67641,2.17348 -0.39801,-2.36102 c -0.86616,-5.13795 -2.77314,-7.52823 -9.7116,-12.17292 -3.73185,-2.49815 -8.16349,-6.2663 -7.36964,-6.2663 0.14598,0 2.91754,0.61173 6.159,1.35941 6.56416,1.51408 6.20263,1.57401 6.7831,-1.12446 0.43124,-2.00462 0.4298,-2.43481 -0.0134,-4.03059 -1.45545,-5.24135 -9.57729,-7.09733 -16.57222,-3.78704 -4.47445,2.11751 -6.95463,5.63056 -6.98836,9.89876 -0.0375,4.7373 2.99316,8.56832 9.28409,11.73614 3.22178,1.62233 5.24809,3.19711 5.24809,4.07866 0,0.65228 -1.38274,1.65068 -2.28612,1.65068 -1.33388,0 -4.04972,-0.85426 -7.02178,-2.20867 -1.3999,-0.63795 -2.6453,-1.04321 -2.76757,-0.90057 -0.59332,0.69218 -4.68857,7.49918 -4.68857,7.79318 0,0.40537 4.0178,2.46569 7.0409,3.61056 5.44402,2.0617 9.50815,2.17471 16.42033,0.45659 z m -106.9515,-17.03478 c 1.70702,-2.17012 -1.07749,-5.0505 -3.01214,-3.11586 -0.75618,0.75618 -0.85352,1.70818 -0.28509,2.78811 0.80301,1.52558 2.24246,1.66867 3.29723,0.32775 z"
       id="path697"
       transform="scale(0.26458333)" /><path
       style="fill:none;stroke-width:0.335281"
       d="M 172.16662,403.67793 V 371.9939 h 214.74727 214.74727 v 31.68403 31.68402 H 386.91389 172.16662 Z m 137.63272,19.27876 c 7.3322,-0.62947 11.04608,-1.84834 13.69104,-4.4933 1.89021,-1.89021 2.40332,-3.33359 2.39554,-6.73873 -0.006,-2.72745 -0.10901,-3.21416 -1.06926,-5.06307 -0.58432,-1.12504 -1.44875,-2.50471 -1.92098,-3.06592 -0.47223,-0.56121 -0.8586,-1.16601 -0.8586,-1.34399 0,-0.17798 0.45639,-1.21234 1.01419,-2.29856 2.83422,-5.51919 1.77549,-10.69888 -2.81877,-13.79048 -3.07014,-2.06598 -5.9833,-2.54538 -18.99967,-3.12664 -7.44211,-0.33234 -18.18287,-0.22887 -47.593,0.45848 l -2.84989,0.0666 v 19.61392 19.61392 l 11.68346,0.23888 c 6.4259,0.13138 12.98901,0.29936 14.58471,0.37328 5.32779,0.24683 28.32569,-0.0653 32.74123,-0.4444 z m 41.11583,-0.14773 c 5.0274,-1.06561 8.24278,-3.91493 8.87425,-7.86394 l 0.22008,-1.37631 h -9.43071 -9.43071 v -2.80299 -2.803 l 4.61011,-0.17612 c 5.31712,-0.20313 7.61401,-0.86669 9.56765,-2.76404 1.21165,-1.17674 2.58628,-4.21476 2.58628,-5.71586 v -0.82562 h -8.38202 -8.38202 v -2.34697 -2.34696 h 11.84911 11.84911 l 0.41991,1.92786 c 0.85164,3.90995 4.13406,13.11915 6.19788,17.3888 3.10321,6.41995 5.29324,8.51163 8.91183,8.51163 3.4955,0 5.4062,-1.75692 8.20407,-7.54381 2.64393,-5.46848 4.81872,-11.30163 7.40644,-19.86538 0.0963,-0.31877 1.89504,-0.4191 7.51334,-0.4191 h 7.38669 v 14.58471 14.58471 h 5.02921 5.02921 v -14.50394 -14.50394 l 2.59843,-0.58723 c 1.42913,-0.32299 3.35897,-0.94128 4.28853,-1.37399 1.77732,-0.82734 3.50761,-2.55824 3.50549,-3.50672 -0.002,-1.09748 -1.25324,-2.58662 -2.94685,-3.5084 -2.40876,-1.31101 -5.27723,-1.5634 -18.89642,-1.66263 -13.47653,-0.0982 -15.13919,0.12646 -19.62577,2.65189 -5.80637,3.26831 -6.76381,3.63453 -9.50221,3.63453 -2.37042,0 -2.71816,-0.10069 -5.69977,-1.65033 -1.74643,-0.90769 -4.00515,-2.07841 -5.01937,-2.60161 -3.96838,-2.04713 -10.04629,-2.51551 -27.57684,-2.12512 l -11.31572,0.25199 v 19.73061 19.73061 l 3.26899,0.10961 c 8.93872,0.29971 14.75735,0.21948 16.8918,-0.23294 z m -150.92025,-14.4371 v -14.58471 h 6.91373 6.91373 l -0.24859,14.41707 -0.2486,14.41707 h 5.40497 5.40497 v -7.37618 -7.37617 h 5.86741 5.86741 v 7.54381 7.54382 h 5.02921 5.02921 v -19.78156 -19.78156 h -2.46402 c -1.35521,0 -3.61835,0.0976 -5.02921,0.21684 l -2.56519,0.21683 v 7.32698 7.32698 h -5.86087 -5.86088 l -0.0904,-7.29236 -0.0904,-7.29235 -6.70562,-0.20605 c -3.68808,-0.11333 -13.6082,-0.22648 -22.0447,-0.25146 l -15.33909,-0.0454 v 5.19685 5.19685 h 4.86157 4.86157 v 14.36119 c 0,7.89865 0.10058,14.46177 0.22352,14.5847 0.12294,0.12294 2.46152,0.22353 5.19685,0.22353 h 4.97333 z m 255.22756,13.60545 c 2.56611,-0.98974 5.88,-3.23875 6.66209,-4.5213 1.37016,-2.24693 0.43819,-4.27641 -2.57609,-5.60977 -1.14551,-0.50671 -2.69082,-0.74458 -6.15106,-0.94683 -6.4211,-0.37532 -7.81708,-1.12943 -8.91124,-4.81384 -0.92608,-3.11848 -0.40106,-6.01888 1.50899,-8.3361 1.66207,-2.01639 3.55133,-2.66822 8.57052,-2.95699 4.85572,-0.27936 6.17949,-0.72009 7.01484,-2.33548 1.78932,-3.46016 -1.05999,-6.83532 -6.94085,-8.22182 -9.58966,-2.26091 -18.18508,3.18005 -20.91615,13.24006 -0.79285,2.9205 -0.80709,8.77215 -0.0285,11.73482 2.33881,8.90017 8.6659,13.97367 16.9946,13.62743 1.89717,-0.0789 3.49274,-0.36643 4.7729,-0.86018 z m 23.72596,-6.56456 v -7.54381 h 5.86741 5.86741 v 7.54381 7.54382 h 5.19685 5.19685 v -19.78156 -19.78156 h -5.19685 -5.19685 v 7.54381 7.54382 h -5.86741 -5.86741 v -7.54382 -7.54381 h -5.02921 -5.02921 v 19.78156 19.78156 h 5.02921 5.02921 z m 49.82871,6.70938 c 3.6443,-1.08942 4.79508,-3.31916 5.18371,-10.0439 0.61782,-10.69107 0.202,-20.78009 -0.96481,-23.40857 -0.86854,-1.95659 -2.99908,-3.78399 -5.16047,-4.42618 -2.39575,-0.71182 -8.5856,-0.97738 -13.57233,-0.58229 -3.2599,0.25828 -4.36995,0.48302 -5.51916,1.11744 -2.53181,1.39772 -3.6395,4.05753 -3.12331,7.49975 l 0.22625,1.50877 h 9.01449 9.01453 v 2.34696 c 0,1.29083 -0.11316,2.35114 -0.25146,2.35624 -0.13831,0.005 -3.64618,0.22724 -7.79528,0.49365 -4.1491,0.26641 -7.88328,0.48855 -8.29819,0.49365 -0.74161,0.009 -0.75439,0.0803 -0.75439,4.20028 v 4.19101 h 8.54966 8.54966 v 2.84988 2.84989 h -9.57069 -9.5707 l 0.21249,1.2573 c 0.36943,2.18591 1.8042,4.75516 3.23377,5.79074 2.66954,1.9338 5.23236,2.35598 13.05241,2.15017 3.77429,-0.0993 6.49791,-0.33213 7.54382,-0.64479 z m 30.63023,-0.47289 c 5.25489,-1.30617 7.91893,-1.34086 12.91673,-0.16822 7.89911,1.8534 11.38452,1.85874 15.393,0.0236 2.36661,-1.08347 5.05348,-3.59526 6.15079,-5.74995 1.02884,-2.02034 1.39239,-5.75394 0.75519,-7.75603 -1.14267,-3.59014 -3.21987,-5.58063 -10.24504,-9.81735 -3.51954,-2.12255 -7.16944,-4.91044 -6.80932,-5.20112 0.0659,-0.0532 1.47775,0.0369 3.13739,0.20033 5.91385,0.58223 9.4412,-0.34071 12.42108,-3.25 1.00561,-0.98177 1.82835,-1.93491 1.82835,-2.11808 0,-0.38635 -3.99943,-2.08745 -6.7499,-2.87096 -1.0386,-0.29586 -3.04992,-0.69949 -4.4696,-0.89695 -10.24651,-1.42515 -18.21489,5.91311 -15.63695,14.40041 0.59633,1.96322 1.06462,2.7435 2.68838,4.47931 1.90859,2.04026 3.97505,3.41039 11.50874,7.63062 1.42776,0.7998 2.53751,1.51263 2.46606,1.58405 -0.0714,0.0714 -3.37467,-0.4829 -7.3405,-1.23185 -3.96587,-0.74894 -7.33876,-1.3562 -7.4953,-1.34945 -0.15654,0.007 -1.039,0.99033 -1.96102,2.18574 l -1.67641,2.17348 -0.39801,-2.36102 c -0.86616,-5.13795 -2.77314,-7.52823 -9.7116,-12.17292 -3.73185,-2.49815 -8.16349,-6.2663 -7.36964,-6.2663 0.14598,0 2.91754,0.61173 6.159,1.35941 6.56416,1.51408 6.20263,1.57401 6.7831,-1.12446 0.43124,-2.00462 0.4298,-2.43481 -0.0134,-4.03059 -1.45545,-5.24135 -9.57729,-7.09733 -16.57222,-3.78704 -4.47445,2.11751 -6.95463,5.63056 -6.98836,9.89876 -0.0375,4.7373 2.99316,8.56832 9.28409,11.73614 3.22178,1.62233 5.24809,3.19711 5.24809,4.07866 0,0.65228 -1.38274,1.65068 -2.28612,1.65068 -1.33388,0 -4.04972,-0.85426 -7.02178,-2.20867 -1.3999,-0.63795 -2.6453,-1.04321 -2.76757,-0.90057 -0.59332,0.69218 -4.68857,7.49918 -4.68857,7.79318 0,0.40537 4.0178,2.46569 7.0409,3.61056 5.44402,2.0617 9.50815,2.17471 16.42033,0.45659 z m -106.9515,-17.03478 c 1.70702,-2.17012 -1.07749,-5.0505 -3.01214,-3.11586 -0.75618,0.75618 -0.85352,1.70818 -0.28509,2.78811 0.80301,1.52558 2.24246,1.66867 3.29723,0.32775 z"
       id="path772"
       transform="scale(0.26458333)" /><g
       id="g42812"
       transform="translate(-44.864582,-116.52527)"><g
         id="g37772"
         transform="translate(-2.116667,-3.13872)"><g
           id="g49390"
           transform="matrix(1,0,0,1.0169849,-66.311501,-2.0773538)"><ellipse
             style="fill:#8c696e;fill-opacity:1;stroke-width:0.262374"
             id="path994"
             cx="118.73122"
             cy="124.87035"
             rx="1.1095302"
             ry="1.0909997" /><path
             style="fill:#cda5aa;fill-opacity:1;stroke:none;stroke-width:0.264583"
             d="m 120.70754,123.2947 c 0,0 -0.80354,-1.08997 -2.28033,-0.91571 -0.50997,0.0602 -0.92079,0.24755 -1.25041,0.49444 -0.28967,0.21697 -0.50973,0.49212 -0.66937,0.78507 -0.23994,0.44031 -0.33948,0.93126 -0.30255,1.40848 0.0382,0.49399 0.22425,1.00508 0.5596,1.40294 0.28387,0.33679 0.6357,0.58743 1.05141,0.74136 0.15586,0.0577 0.31929,0.10258 0.48388,0.13388 0.0496,0.009 0.25416,0.0311 0.30201,0.0329 1.42196,0.054 2.13257,-0.94517 2.13257,-0.94517 l 1.95563,1.48578 c 0,0 -0.11713,0.16349 -0.38291,0.44711 -0.28709,0.30635 -0.64724,0.5935 -1.08821,0.86426 -0.25274,0.15519 -0.66494,0.34134 -0.97139,0.45243 -0.20752,0.0752 -0.56816,0.17631 -0.92272,0.2277 -0.31974,0.0463 -0.68165,0.0736 -0.86168,0.0624 -0.96551,-0.02 -1.59993,-0.21301 -2.23778,-0.52071 -0.65038,-0.31375 -1.24731,-0.74868 -1.79008,-1.40314 -0.75055,-0.905 -1.14935,-2.14154 -1.14237,-3.18323 -0.0131,-2.42115 1.73228,-4.59229 4.22022,-5.06102 0.79803,-0.15386 1.46441,-0.10249 2.0425,0.008 0.5618,0.10777 1.07313,0.31491 1.46312,0.5299 0.0862,0.0476 0.16884,0.10087 0.25912,0.14758 0.0711,0.0368 0.29381,0.18553 0.38401,0.261 0.0114,0.01 0.0537,0.0363 0.0642,0.0451 0.0279,0.0234 0.0807,0.066 0.13159,0.10674 0.10154,0.0812 0.20778,0.17922 0.27692,0.24456 0.29309,0.27699 0.47796,0.5184 0.47796,0.5184 z"
             id="path855"
             sodipodi:nodetypes="ccsscssccccsssscssccssssssscc" /></g></g></g></g></svg>
