<svg xmlns="http://www.w3.org/2000/svg" xml:space="preserve" width="416.693" height="39.454" viewBox="0 0 110.25 10.439">
    <path id="t-letter-1" d="M55.931 122.338h-3.64v7.765h-2.655v-7.765h-2.655v-2.674l8.95.005z" style="fill-opacity:1;stroke:none;stroke-width:.267329" transform="translate(-46.981 -119.664)"/>
    <path id="h-letter-1" d="m58.59 123.726 3.197-.032v-4.014l2.657-.016V130.1h-2.658v-3.988h-3.204l.018 3.991-2.697-.009-.002-10.407 2.68-.004z" style="fill-opacity:1;stroke:none;stroke-width:.266613" transform="translate(-46.981 -119.664)"/>
    <path id="e-letter-1" d="m72.793 119.664-7.018.005.012 10.434 7.01-.001-.002-2.378h-4.36l.007-1.698c.532-.002 4.352 0 4.352 0v-2.328s-3.435.003-4.378 0V122h4.378v-2.337" style="fill-opacity:1;stroke:none;stroke-width:.266757" transform="translate(-46.981 -119.664)"/>
    <g id="space">
        <path d="M72.738 119.664v2.293l5.043-.001v-2.292z" style="fill-opacity:1;stroke:none;stroke-width:0;stroke-dasharray:none" transform="matrix(1 0 0 1.01687 -46.981 -121.683)"/>
        <path d="M70.585 124.454v2.337h5.075v-2.34z" style="fill-opacity:1;stroke:none;stroke-width:0;stroke-dasharray:none" transform="matrix(1 0 0 1.01687 -44.865 -118.491)"/>
    </g>
    <path id="b-letter" d="m84.552 124.493-.062.046c2.571 1.15 2.604 5.49-2.01 5.556-1.28.018-4.797 0-4.797 0l.006-10.431 5.646.003s2.005-.009 2.462 1.898c.07.292.4 2.402-1.236 2.919m-4.138-2.105-.002 1.219 2.177-.006s.361-.065.377-.603c.015-.537-.378-.594-.378-.594zm2.48 5.275s.345-.165.345-.732-.39-.707-.39-.707l-2.362-.023-.02 1.462z" style="fill-opacity:1;stroke:none;stroke-width:.266658" transform="translate(-46.981 -119.664)"/>
    <path id="e-letter-2" d="m 94.409574,122.34393 -4.806987,0.004 v 1.32413 h 4.497917 l 0.01046,2.35444 -4.508374,0.0187 v 1.58896 h 5.027084 l -0.0095,2.41378 -7.663423,-0.02 v -10.32833 c 1.59817,0 7.734703,-0.0235 7.734703,-0.0235 l 1.009621,2.66348 z" style="fill-opacity:1;stroke:none;stroke-width:.264705" transform="translate(-46.981 -119.664)"/>
    <path id="a-letter" d="m101.297 130.106-2.687-.003-3.951-10.428 3.006-.01.652 1.662 3.304.01.827-1.643h2.984zm-2.148-6.344.882 2.515.892-2.538" style="fill-opacity:1;stroke:none;stroke-width:.264705" transform="translate(-46.981 -119.664)"/>
    <path id="t-letter-2" d="m 105.38662,119.69402 4.80858,-2.5e-4 3.49952,-0.0104 0.0156,2.64376 -2.88402,0.0106 0.0222,7.76267 -2.74564,0.003 -0.0333,-7.74308 -3.71874,9.7e-4 z" style="fill-opacity:1;stroke:none;stroke-width:.264705" transform="translate(-46.981 -119.664)"/>
    <g id="c-letter" style="fill-opacity:1;stroke:none" transform="matrix(1 0 0 1 66.312 0)"><path d="M5.22 0A5.22 5.22 0 0 0 0 5.22a5.22 5.22 0 0 0 5.22 5.221 5.22 5.22 0 0 0 4.172-2.086L7.433 6.852A2.75 2.75 0 0 1 5.218 7.97 2.75 2.75 0 0 1 2.47 5.219 2.75 2.75 0 0 1 5.22 2.47a2.75 2.75 0 0 1 2.134 1.017l1.961-1.504A5.22 5.22 0 0 0 5.22 0Zm4.096 1.984a5.22 5.22 0 0 1 .322.456 5.22 5.22 0 0 0-.322-.456Zm.322.456a5.22 5.22 0 0 1 .143.24 5.22 5.22 0 0 0-.143-.24Zm.143.24a5.22 5.22 0 0 1 .129.247 5.22 5.22 0 0 0-.13-.247Zm.129.247a5.22 5.22 0 0 1 .218.515 5.22 5.22 0 0 0-.218-.515Zm.218.515a5.22 5.22 0 0 1 .221.807 5.22 5.22 0 0 0-.22-.807zm.221.807a5.22 5.22 0 0 1 .045.275 5.22 5.22 0 0 0-.045-.275zm.045.276a5.22 5.22 0 0 1 .008.07 5.22 5.22 0 0 1 .018.156 5.22 5.22 0 0 0-.026-.226zm-1.002 3.83a5.22 5.22 0 0 0 .284-.42 5.22 5.22 0 0 1-.284.42zm1.028-3.6a5.22 5.22 0 0 1 .015.216 5.22 5.22 0 0 0-.015-.215Zm.015.217a5.22 5.22 0 0 0 0 .001 5.22 5.22 0 0 0 0 .001 5.22 5.22 0 0 1 .006.239 5.22 5.22 0 0 0-.006-.24zM7.97 5.24a2.75 2.75 0 0 1-.013.235 2.75 2.75 0 0 0 .007-.083 2.75 2.75 0 0 0 .006-.152Zm-.02.297a2.75 2.75 0 0 1-.036.229 2.75 2.75 0 0 0 .007-.031 2.75 2.75 0 0 0 .001-.005 2.75 2.75 0 0 0 .006-.037 2.75 2.75 0 0 0 .02-.131 2.75 2.75 0 0 0 .003-.025Zm2.479.023a5.22 5.22 0 0 1-.008.1 5.22 5.22 0 0 0 .008-.1zm-2.531.278a2.75 2.75 0 0 1-.05.192 2.75 2.75 0 0 0 .037-.132 2.75 2.75 0 0 0 0-.001 2.75 2.75 0 0 0 .003-.015 2.75 2.75 0 0 0 .01-.044zm2.494.086a5.22 5.22 0 0 1-.026.163 5.22 5.22 0 0 0 .026-.163zm-2.576.2a2.75 2.75 0 0 1-.07.179 2.75 2.75 0 0 0 .07-.18zm2.51.176a5.22 5.22 0 0 1-.04.173 5.22 5.22 0 0 0 .04-.173Zm-2.607.067a2.75 2.75 0 0 1-.104.204 2.75 2.75 0 0 0 .104-.204Zm2.533.234a5.22 5.22 0 0 1-.101.327 5.22 5.22 0 0 0 .101-.327Zm-2.681.044a2.75 2.75 0 0 1-.1.15 2.75 2.75 0 0 0 .1-.15zm2.547.376a5.22 5.22 0 0 1-.08.206 5.22 5.22 0 0 0 .08-.206zm-.104.259a5.22 5.22 0 0 1-.177.372 5.22 5.22 0 0 0 .177-.372Zm-.216.446a5.22 5.22 0 0 1-.115.2 5.22 5.22 0 0 0 .115-.2z" style="fill-opacity:1;stroke:none;stroke-width:.264858"/>
        <circle cx="5.221" cy="5.221" r="1.11" style="fill-opacity:1;stroke:none;stroke-width:.358763"/>
    </g>
    <path id="h-letter-2" d="M126.092 119.664v4.015h3.175v-4.015h2.646v10.439h-2.646v-4.015h-3.175v4.015h-2.646v-10.439h2.646" style="fill-opacity:1;stroke:none;stroke-width:.26612" transform="translate(-46.981 -119.664)"/>
    <path id="e-letter-3" d="M132.97 127.717h5.028v-1.604H133.5l.011-2.395 4.487.002-.011-1.392-4.996-.012.02-2.652 7.642.033s.029 5.812-.022 7.478c-.023.742 0 2.925 0 2.925l-7.646.003-.014-2.386" style="fill-opacity:1;stroke:none;stroke-width:.265902" transform="translate(-46.981 -119.664)"/>
    <path id="s-letter-1" d="M142.48 126.616s3.3 1.97 3.785.67c.283-.762-1.68-.907-3.14-1.626-1.04-.511-1.662-1.489-1.822-2.346-.386-2.063 1.583-3.556 3.479-3.644 2.605-.12 3.998 1.508 3.998 1.508l-.98 1.712s-3.306-1.541-3.519-.278c-.18 1.072 4.496 1.195 5.135 3.857.03 1.347-.46 2.016-1.338 2.763-.859.73-2.174.917-3.288.862-1.802-.148-3.858-1.486-3.858-1.486z" style="fill-opacity:1;stroke:none;stroke-width:.266825" transform="translate(-46.981 -119.664)"/>
    <path id="s-letter-2" d="M150.247 126.405s3.48 2.06 3.973.784c.284-.734-1.696-.86-3.156-1.567-1.039-.503-1.755-1.26-1.916-2.103-.385-2.028 1.45-3.763 3.346-3.849 2.605-.118 4.13 1.514 4.13 1.514l-1.134 1.683s-3.135-1.5-3.347-.257c-.18 1.054 4.382 1.339 5.087 3.791.03 1.325-.41 2.004-1.288 2.738-.859.718-2.194.831-3.308.777-1.802-.145-3.81-1.27-3.81-1.27z" style="fill-opacity:1;stroke:none;stroke-width:.264583" transform="translate(-46.981 -119.664)"/>
    
</svg>