<svg xmlns="http://www.w3.org/2000/svg" xml:space="preserve" width="39.462" height="39.462" viewBox="0 0 10.441 10.441">
        <path d="M172.167 403.678v-31.684H601.66v63.368H172.167Zm137.632 19.279c7.333-.63 11.046-1.849 13.691-4.494 1.89-1.89 2.404-3.333 2.396-6.738-.006-2.728-.11-3.214-1.07-5.063-.584-1.125-1.448-2.505-1.92-3.066-.473-.562-.859-1.166-.859-1.344 0-.178.456-1.213 1.014-2.299 2.834-5.52 1.776-10.699-2.818-13.79-3.07-2.066-5.984-2.546-19-3.127-7.442-.332-18.183-.229-47.593.458l-2.85.067v39.228l11.683.239c6.426.131 12.99.3 14.585.373 5.328.247 28.326-.065 32.741-.444zm41.116-.148c5.028-1.066 8.243-3.915 8.874-7.864l.22-1.376h-18.86v-5.606l4.61-.176c5.316-.204 7.613-.867 9.567-2.764 1.211-1.177 2.586-4.215 2.586-5.716v-.826h-16.764v-4.694h23.698l.42 1.928c.852 3.91 4.134 13.12 6.198 17.389 3.103 6.42 5.293 8.511 8.912 8.511 3.495 0 5.406-1.756 8.204-7.543 2.644-5.469 4.819-11.302 7.406-19.866.097-.319 1.895-.419 7.514-.419h7.386v29.17H420.945v-29.008l2.598-.588c1.43-.323 3.36-.94 4.289-1.374 1.777-.827 3.507-2.558 3.505-3.506-.002-1.098-1.253-2.587-2.947-3.509-2.408-1.31-5.277-1.563-18.896-1.662-13.476-.098-15.14.126-19.626 2.652-5.806 3.268-6.764 3.634-9.502 3.634-2.37 0-2.718-.1-5.7-1.65-1.746-.908-4.005-2.079-5.02-2.602-3.967-2.047-10.045-2.515-27.576-2.125l-11.316.252v39.461l3.27.11c8.938.3 14.757.22 16.891-.233zm-150.92-14.437v-14.585h13.827l-.248 14.417-.249 14.417h10.81V407.87h11.735v15.088h10.058v-39.564h-2.464c-1.355 0-3.618.098-5.029.217l-2.565.217v14.654H224.148l-.09-7.292-.09-7.293-6.706-.206c-3.688-.113-13.608-.226-22.045-.251l-15.339-.046v10.394H189.601v14.361c0 7.899.1 14.462.224 14.585.123.123 2.461.224 5.197.224h4.973zm255.227 13.605c2.567-.99 5.88-3.238 6.663-4.521 1.37-2.247.438-4.276-2.577-5.61-1.145-.506-2.69-.744-6.15-.947-6.422-.375-7.818-1.129-8.912-4.813-.926-3.119-.4-6.02 1.51-8.337 1.661-2.016 3.55-2.668 8.57-2.957 4.855-.279 6.18-.72 7.015-2.335 1.789-3.46-1.06-6.835-6.941-8.222-9.59-2.26-18.185 3.18-20.916 13.24-.793 2.92-.808 8.772-.029 11.735 2.339 8.9 8.666 13.974 16.995 13.627 1.897-.078 3.492-.366 4.773-.86zm23.726-6.564v-7.544h11.735v15.088h10.394v-39.564h-10.394v15.088h-11.735v-15.088H468.89v39.564h10.058zm49.83 6.71c3.643-1.09 4.794-3.32 5.183-10.045.618-10.69.202-20.78-.965-23.408-.868-1.957-2.999-3.784-5.16-4.427-2.396-.711-8.586-.977-13.573-.582-3.26.258-4.37.483-5.519 1.118-2.532 1.397-3.64 4.057-3.123 7.5l.226 1.508h18.029v2.347c0 1.29-.113 2.351-.251 2.356-.139.005-3.647.228-7.796.494-4.149.266-7.883.489-8.298.494-.741.009-.754.08-.754 4.2v4.19h17.099v5.7h-19.141l.212 1.258c.37 2.186 1.804 4.755 3.234 5.79 2.67 1.935 5.232 2.357 13.052 2.15 3.775-.098 6.498-.331 7.544-.644zm30.63-.474c5.254-1.306 7.918-1.34 12.916-.168 7.9 1.853 11.385 1.859 15.393.024 2.367-1.084 5.054-3.596 6.15-5.75 1.03-2.02 1.393-5.754.756-7.756-1.143-3.59-3.22-5.581-10.245-9.818-3.52-2.122-7.17-4.91-6.81-5.2.067-.054 1.478.036 3.138.2 5.914.582 9.441-.341 12.421-3.25 1.006-.982 1.829-1.935 1.829-2.119 0-.386-4-2.087-6.75-2.87-1.039-.296-3.05-.7-4.47-.897-10.246-1.426-18.215 5.913-15.637 14.4.596 1.963 1.065 2.743 2.688 4.48 1.91 2.04 3.976 3.41 11.51 7.63 1.427.8 2.537 1.512 2.465 1.584-.071.071-3.374-.483-7.34-1.232-3.966-.749-7.339-1.356-7.496-1.35-.156.008-1.039.99-1.96 2.186l-1.677 2.174-.398-2.361c-.866-5.138-2.773-7.528-9.712-12.173-3.731-2.498-8.163-6.266-7.37-6.266.147 0 2.918.611 6.16 1.359 6.564 1.514 6.202 1.574 6.783-1.124.431-2.005.43-2.435-.013-4.031-1.456-5.241-9.578-7.097-16.573-3.787-4.474 2.117-6.954 5.63-6.988 9.899-.038 4.737 2.993 8.568 9.284 11.736 3.222 1.622 5.248 3.197 5.248 4.078 0 .653-1.383 1.651-2.286 1.651-1.334 0-4.05-.854-7.022-2.209-1.4-.637-2.645-1.043-2.767-.9-.594.692-4.689 7.5-4.689 7.793 0 .405 4.018 2.466 7.041 3.61 5.444 2.062 9.508 2.175 16.42.457zm-106.952-17.035c1.707-2.17-1.078-5.05-3.012-3.115-.756.756-.854 1.708-.285 2.788.803 1.525 2.242 1.668 3.297.327z" style="stroke-width:.335281" transform="scale(.26458)"/>
        <path d="M172.167 403.678v-31.684H601.66v63.368H172.167Zm137.632 19.279c7.333-.63 11.046-1.849 13.691-4.494 1.89-1.89 2.404-3.333 2.396-6.738-.006-2.728-.11-3.214-1.07-5.063-.584-1.125-1.448-2.505-1.92-3.066-.473-.562-.859-1.166-.859-1.344 0-.178.456-1.213 1.014-2.299 2.834-5.52 1.776-10.699-2.818-13.79-3.07-2.066-5.984-2.546-19-3.127-7.442-.332-18.183-.229-47.593.458l-2.85.067v39.228l11.683.239c6.426.131 12.99.3 14.585.373 5.328.247 28.326-.065 32.741-.444zm41.116-.148c5.028-1.066 8.243-3.915 8.874-7.864l.22-1.376h-18.86v-5.606l4.61-.176c5.316-.204 7.613-.867 9.567-2.764 1.211-1.177 2.586-4.215 2.586-5.716v-.826h-16.764v-4.694h23.698l.42 1.928c.852 3.91 4.134 13.12 6.198 17.389 3.103 6.42 5.293 8.511 8.912 8.511 3.495 0 5.406-1.756 8.204-7.543 2.644-5.469 4.819-11.302 7.406-19.866.097-.319 1.895-.419 7.514-.419h7.386v29.17H420.945v-29.008l2.598-.588c1.43-.323 3.36-.94 4.289-1.374 1.777-.827 3.507-2.558 3.505-3.506-.002-1.098-1.253-2.587-2.947-3.509-2.408-1.31-5.277-1.563-18.896-1.662-13.476-.098-15.14.126-19.626 2.652-5.806 3.268-6.764 3.634-9.502 3.634-2.37 0-2.718-.1-5.7-1.65-1.746-.908-4.005-2.079-5.02-2.602-3.967-2.047-10.045-2.515-27.576-2.125l-11.316.252v39.461l3.27.11c8.938.3 14.757.22 16.891-.233zm-150.92-14.437v-14.585h13.827l-.248 14.417-.249 14.417h10.81V407.87h11.735v15.088h10.058v-39.564h-2.464c-1.355 0-3.618.098-5.029.217l-2.565.217v14.654H224.148l-.09-7.292-.09-7.293-6.706-.206c-3.688-.113-13.608-.226-22.045-.251l-15.339-.046v10.394H189.601v14.361c0 7.899.1 14.462.224 14.585.123.123 2.461.224 5.197.224h4.973zm255.227 13.605c2.567-.99 5.88-3.238 6.663-4.521 1.37-2.247.438-4.276-2.577-5.61-1.145-.506-2.69-.744-6.15-.947-6.422-.375-7.818-1.129-8.912-4.813-.926-3.119-.4-6.02 1.51-8.337 1.661-2.016 3.55-2.668 8.57-2.957 4.855-.279 6.18-.72 7.015-2.335 1.789-3.46-1.06-6.835-6.941-8.222-9.59-2.26-18.185 3.18-20.916 13.24-.793 2.92-.808 8.772-.029 11.735 2.339 8.9 8.666 13.974 16.995 13.627 1.897-.078 3.492-.366 4.773-.86zm23.726-6.564v-7.544h11.735v15.088h10.394v-39.564h-10.394v15.088h-11.735v-15.088H468.89v39.564h10.058zm49.83 6.71c3.643-1.09 4.794-3.32 5.183-10.045.618-10.69.202-20.78-.965-23.408-.868-1.957-2.999-3.784-5.16-4.427-2.396-.711-8.586-.977-13.573-.582-3.26.258-4.37.483-5.519 1.118-2.532 1.397-3.64 4.057-3.123 7.5l.226 1.508h18.029v2.347c0 1.29-.113 2.351-.251 2.356-.139.005-3.647.228-7.796.494-4.149.266-7.883.489-8.298.494-.741.009-.754.08-.754 4.2v4.19h17.099v5.7h-19.141l.212 1.258c.37 2.186 1.804 4.755 3.234 5.79 2.67 1.935 5.232 2.357 13.052 2.15 3.775-.098 6.498-.331 7.544-.644zm30.63-.474c5.254-1.306 7.918-1.34 12.916-.168 7.9 1.853 11.385 1.859 15.393.024 2.367-1.084 5.054-3.596 6.15-5.75 1.03-2.02 1.393-5.754.756-7.756-1.143-3.59-3.22-5.581-10.245-9.818-3.52-2.122-7.17-4.91-6.81-5.2.067-.054 1.478.036 3.138.2 5.914.582 9.441-.341 12.421-3.25 1.006-.982 1.829-1.935 1.829-2.119 0-.386-4-2.087-6.75-2.87-1.039-.296-3.05-.7-4.47-.897-10.246-1.426-18.215 5.913-15.637 14.4.596 1.963 1.065 2.743 2.688 4.48 1.91 2.04 3.976 3.41 11.51 7.63 1.427.8 2.537 1.512 2.465 1.584-.071.071-3.374-.483-7.34-1.232-3.966-.749-7.339-1.356-7.496-1.35-.156.008-1.039.99-1.96 2.186l-1.677 2.174-.398-2.361c-.866-5.138-2.773-7.528-9.712-12.173-3.731-2.498-8.163-6.266-7.37-6.266.147 0 2.918.611 6.16 1.359 6.564 1.514 6.202 1.574 6.783-1.124.431-2.005.43-2.435-.013-4.031-1.456-5.241-9.578-7.097-16.573-3.787-4.474 2.117-6.954 5.63-6.988 9.899-.038 4.737 2.993 8.568 9.284 11.736 3.222 1.622 5.248 3.197 5.248 4.078 0 .653-1.383 1.651-2.286 1.651-1.334 0-4.05-.854-7.022-2.209-1.4-.637-2.645-1.043-2.767-.9-.594.692-4.689 7.5-4.689 7.793 0 .405 4.018 2.466 7.041 3.61 5.444 2.062 9.508 2.175 16.42.457zm-106.952-17.035c1.707-2.17-1.078-5.05-3.012-3.115-.756.756-.854 1.708-.285 2.788.803 1.525 2.242 1.668 3.297.327z" style="stroke-width:.335281" transform="scale(.26458)"/>
    <g style="fill-opacity:1;stroke:none">
        <path d="M5.22 0A5.22 5.22 0 0 0 0 5.22a5.22 5.22 0 0 0 5.22 5.221 5.22 5.22 0 0 0 4.172-2.086L7.433 6.852A2.75 2.75 0 0 1 5.218 7.97 2.75 2.75 0 0 1 2.47 5.219 2.75 2.75 0 0 1 5.22 2.47a2.75 2.75 0 0 1 2.134 1.017l1.961-1.504A5.22 5.22 0 0 0 5.22 0zm4.096 1.984a5.22 5.22 0 0 1 .322.456 5.22 5.22 0 0 0-.322-.456zm.322.456a5.22 5.22 0 0 1 .143.24 5.22 5.22 0 0 0-.143-.24zm.143.24a5.22 5.22 0 0 1 .129.247 5.22 5.22 0 0 0-.13-.247zm.129.247a5.22 5.22 0 0 1 .218.515 5.22 5.22 0 0 0-.218-.515zm.218.515a5.22 5.22 0 0 1 .221.807 5.22 5.22 0 0 0-.22-.807zm.221.807a5.22 5.22 0 0 1 .045.275 5.22 5.22 0 0 0-.045-.275zm.045.276a5.22 5.22 0 0 1 .008.07 5.22 5.22 0 0 1 .018.156 5.22 5.22 0 0 0-.026-.226zm-1.002 3.83a5.22 5.22 0 0 0 .284-.42 5.22 5.22 0 0 1-.284.42zm1.028-3.6a5.22 5.22 0 0 1 .015.216 5.22 5.22 0 0 0-.015-.215zm.015.217a5.22 5.22 0 0 0 0 .001 5.22 5.22 0 0 0 0 .001 5.22 5.22 0 0 1 .006.239 5.22 5.22 0 0 0-.006-.24zM7.97 5.24a2.75 2.75 0 0 1-.013.235 2.75 2.75 0 0 0 .007-.083 2.75 2.75 0 0 0 .006-.152zm-.02.297a2.75 2.75 0 0 1-.036.229 2.75 2.75 0 0 0 .007-.031 2.75 2.75 0 0 0 .001-.005 2.75 2.75 0 0 0 .006-.037 2.75 2.75 0 0 0 .02-.131 2.75 2.75 0 0 0 .003-.025zm2.479.023a5.22 5.22 0 0 1-.008.1 5.22 5.22 0 0 0 .008-.1zm-2.531.278a2.75 2.75 0 0 1-.05.192 2.75 2.75 0 0 0 .037-.132 2.75 2.75 0 0 0 0-.001 2.75 2.75 0 0 0 .003-.015 2.75 2.75 0 0 0 .01-.044zm2.494.086a5.22 5.22 0 0 1-.026.163 5.22 5.22 0 0 0 .026-.163zm-2.576.2a2.75 2.75 0 0 1-.07.179 2.75 2.75 0 0 0 .07-.18zm2.51.176a5.22 5.22 0 0 1-.04.173 5.22 5.22 0 0 0 .04-.173zm-2.607.067a2.75 2.75 0 0 1-.104.204 2.75 2.75 0 0 0 .104-.204zm2.533.234a5.22 5.22 0 0 1-.101.327 5.22 5.22 0 0 0 .101-.327zm-2.681.044a2.75 2.75 0 0 1-.1.15 2.75 2.75 0 0 0 .1-.15zm2.547.376a5.22 5.22 0 0 1-.08.206 5.22 5.22 0 0 0 .08-.206zm-.104.259a5.22 5.22 0 0 1-.177.372 5.22 5.22 0 0 0 .177-.372zm-.216.446a5.22 5.22 0 0 1-.115.2 5.22 5.22 0 0 0 .115-.2z" style="stroke-width:.264858;fill-opacity:1;stroke:none"/>
        <circle cx="5.221" cy="5.221" r="1.11" style="stroke-width:.358763;fill-opacity:1;stroke:none"/>
    </g>
</svg>