<?xml version="1.0" encoding="UTF-8" standalone="no"?>
<!-- Created with Inkscape (http://www.inkscape.org/) -->

<svg
   width="110.25mm"
   height="10.439mm"
   viewBox="0 0 110.25 10.439"
   version="1.1"
   id="svg5"
   xml:space="preserve"
   inkscape:version="1.2.2 (732a01da63, 2022-12-09)"
   sodipodi:docname="thebeatchess(old).svg"
   xmlns:inkscape="http://www.inkscape.org/namespaces/inkscape"
   xmlns:sodipodi="http://sodipodi.sourceforge.net/DTD/sodipodi-0.dtd"
   xmlns="http://www.w3.org/2000/svg"
   xmlns:svg="http://www.w3.org/2000/svg"><sodipodi:namedview
     id="namedview7"
     pagecolor="#505050"
     bordercolor="#eeeeee"
     borderopacity="1"
     inkscape:showpageshadow="0"
     inkscape:pageopacity="0"
     inkscape:pagecheckerboard="0"
     inkscape:deskcolor="#505050"
     inkscape:document-units="mm"
     showgrid="false"
     inkscape:zoom="2"
     inkscape:cx="173"
     inkscape:cy="-10.5"
     inkscape:window-width="1920"
     inkscape:window-height="1017"
     inkscape:window-x="-8"
     inkscape:window-y="-8"
     inkscape:window-maximized="1"
     inkscape:current-layer="g37772" /><defs
     id="defs2"><inkscape:path-effect
       effect="bspline"
       id="path-effect288"
       is_visible="true"
       lpeversion="1"
       weight="33.333333"
       steps="2"
       helper_size="0"
       apply_no_weight="true"
       apply_with_weight="true"
       only_selected="false" /><inkscape:path-effect
       effect="bspline"
       id="path-effect284"
       is_visible="true"
       lpeversion="1"
       weight="33.333333"
       steps="2"
       helper_size="0"
       apply_no_weight="true"
       apply_with_weight="true"
       only_selected="false" /></defs><g
     inkscape:groupmode="layer"
     id="layer2"
     inkscape:label="Layer 2" /><g
     inkscape:label="Layer 1"
     inkscape:groupmode="layer"
     id="layer1"><g
       id="g42812"
       transform="translate(-44.864582,-116.52527)"><g
         id="g49400"
         transform="matrix(1,0,0,1.0168715,0,-1.9659566)"><g
           id="g49393"
           transform="translate(-2.1166682,-3.1387205)"><path
             style="fill-opacity:1;stroke:none;stroke-width:0;stroke-dasharray:none"
             d="m 72.737947,119.6643 8.23e-4,2.29229 5.041987,-9.2e-4 v -2.29168 z"
             id="path36988"
             sodipodi:nodetypes="ccccc" /></g><path
           style="fill-opacity:1;stroke:none;stroke-width:0;stroke-dasharray:none"
           d="m 70.58482,124.45386 v 2.33721 h 5.07517 v -2.34013 z"
           id="path37956"
           sodipodi:nodetypes="ccccc" /></g><g
         id="g37772"
         transform="translate(-2.116667,-3.13872)"><path
           style="fill-opacity:1;stroke:none;stroke-width:0.266825"
           d="m 142.4799,126.61629 c 0,0 3.30051,1.97064 3.78473,0.66919 0.28347,-0.76192 -1.67997,-0.9068 -3.14032,-1.62541 -1.03866,-0.51109 -1.66126,-1.48909 -1.82163,-2.3463 -0.38585,-2.06245 1.58319,-3.55624 3.47914,-3.64346 2.60555,-0.11987 3.99838,1.50736 3.99838,1.50736 l -0.97946,1.71278 c 0,0 -3.30693,-1.54146 -3.51928,-0.27825 -0.18021,1.07204 4.49534,1.19436 5.13422,3.85652 0.0301,1.34743 -0.45929,2.01669 -1.33721,2.76278 -0.85926,0.73023 -2.1746,0.91748 -3.28849,0.86255 -1.80159,-0.14816 -3.85802,-1.48609 -3.85802,-1.48609 z"
           id="path49380" /><path
           style="fill-opacity:1;stroke:none;stroke-width:0.266757"
           d="m 72.793176,119.66399 -7.018186,0.005 0.01219,10.43392 7.00981,-8.6e-4 -0.0022,-2.37804 h -4.360421 l 0.0072,-1.69768 c 0.531958,-0.002 4.35216,-0.001 4.35216,-0.001 l 5.67e-4,-2.32771 c 0,0 -3.4354,0.003 -4.378645,-2.5e-4 l 6.67e-4,-1.69607 4.377443,-0.001 -5.85e-4,-2.33635"
           id="path49378"
           sodipodi:nodetypes="ccccccccccccc" /><path
           style="fill-opacity:1;stroke:none;stroke-width:0.264583"
           d="m 150.24723,126.4054 c 0,0 3.47968,2.05967 3.97292,0.78344 0.28348,-0.73348 -1.69565,-0.86026 -3.156,-1.56684 -1.03866,-0.50254 -1.75535,-1.2603 -1.91572,-2.10316 -0.38585,-2.02794 1.44948,-3.763 3.34543,-3.84876 2.60555,-0.11786 4.12999,1.5135 4.12999,1.5135 l -1.13418,1.68379 c 0,0 -3.13443,-1.49998 -3.34678,-0.25783 -0.18021,1.0541 4.38187,1.33947 5.0869,3.79171 0.0301,1.32488 -0.4095,2.004 -1.28742,2.7376 -0.85926,0.71801 -2.19482,0.83143 -3.30871,0.77741 -1.80159,-0.14568 -3.8089,-1.27016 -3.8089,-1.27016 z"
           id="path49376" /><path
           style="fill-opacity:1;stroke:none;stroke-width:0.265902"
           d="m 132.97084,127.71655 h 5.02708 v -1.60337 H 133.5 l 0.0111,-2.39541 4.48683,0.002 -0.0111,-1.39213 -4.99536,-0.0112 0.0194,-2.65246 7.64259,0.0326 c 0,0 0.0285,5.81216 -0.0226,7.47843 -0.0228,0.74169 4.5e-4,2.92492 4.5e-4,2.92492 l -7.6463,0.003 -0.0141,-2.38608"
           id="path49374" /><path
           style="fill-opacity:1;stroke:none;stroke-width:0.26612"
           d="m 126.09167,119.66404 v 4.01498 h 3.175 v -4.01498 h 2.64583 v 10.43895 h -2.64583 v -4.01498 h -3.175 v 4.01498 h -2.64584 v -10.439 h 2.64584"
           id="path49372" /><path
           style="fill-opacity:1;stroke:none;stroke-width:0.264705"
           d="m 94.409574,122.34393 -4.806987,0.004 v 1.32413 h 4.497917 l 0.01046,2.35444 -4.508374,0.0187 v 1.58896 h 5.027084 l -0.0095,2.41378 -7.663423,-0.02 v -10.32833 c 1.59817,0 7.734703,-0.0235 7.734703,-0.0235 l 1.009621,2.66348 z"
           id="path50323"
           sodipodi:nodetypes="cccccccccccccc" /><path
           style="fill-opacity:1;stroke:none;stroke-width:0.264705"
           d="m 105.38662,119.69402 4.80858,-2.5e-4 3.49952,-0.0104 0.0156,2.64376 -2.88402,0.0106 0.0222,7.76267 -2.74564,0.003 -0.0333,-7.74308 -3.71874,9.7e-4 z"
           id="path50321"
           sodipodi:nodetypes="cccccccccc" /><path
           style="fill-opacity:1;stroke:none;stroke-width:0.264705"
           d="m 101.29713,130.10603 -2.687297,-0.003 -3.950889,-10.42768 3.006497,-0.0113 0.651992,1.66268 3.303747,0.01 0.82656,-1.64254 2.9841,-1.7e-4 z m -2.148445,-6.3445 0.882465,2.51509 0.89199,-2.53729"
           id="path49370" /><path
           style="fill-opacity:1;stroke:none;stroke-width:0.266658"
           d="m 84.552306,124.49332 -0.06272,0.0458 c 2.571582,1.15058 2.604482,5.48928 -2.00954,5.55585 -1.280532,0.0185 -4.796797,-8.1e-4 -4.796797,-8.1e-4 l 0.0053,-10.43018 5.646168,0.003 c 0,0 2.005747,-0.009 2.462698,1.89815 0.06999,0.29207 0.398877,2.40229 -1.236748,2.91876 m -4.137854,-2.10498 -0.0018,1.21862 2.176954,-0.006 c 0,0 0.361443,-0.0646 0.376775,-0.60222 0.01533,-0.53758 -0.377897,-0.59428 -0.377897,-0.59428 z m 2.480589,5.27551 c 0,0 0.344666,-0.16503 0.344257,-0.73236 -4.09e-4,-0.56734 -0.389782,-0.70744 -0.389782,-0.70744 l -2.36232,-0.0228 -0.0196,1.46186 z"
           id="path49368" /><path
           style="fill-opacity:1;stroke:none;stroke-width:0.267329"
           d="m 55.931249,122.33818 h -3.640585 v 7.76481 h -2.654713 v -7.76481 h -2.654702 v -2.67419 l 8.949674,0.005 z"
           id="path49366" /><path
           style="fill-opacity:1;stroke:none;stroke-width:0.266613"
           d="m 58.589843,123.72577 3.19724,-0.0319 -8.63e-4,-4.01396 2.657527,-0.0159 v 10.4357 h -2.658238 v -3.9879 H 58.58157 l 0.01846,3.9912 -2.696583,-0.009 -0.0021,-10.40682 2.678948,-0.004 z"
           id="path49364" /><g
           style="fill-opacity:1;stroke:none"
           id="g12195"
           transform="matrix(0.99999885,0,0,0.99999885,113.29325,119.66399)">
        <path
   d="M 5.22,0 A 5.22,5.22 0 0 0 0,5.22 5.22,5.22 0 0 0 5.22,10.441 5.22,5.22 0 0 0 9.392,8.355 L 7.433,6.852 A 2.75,2.75 0 0 1 5.218,7.97 2.75,2.75 0 0 1 2.47,5.219 2.75,2.75 0 0 1 5.22,2.47 2.75,2.75 0 0 1 7.354,3.487 L 9.315,1.983 A 5.22,5.22 0 0 0 5.22,0 Z M 9.316,1.984 A 5.22,5.22 0 0 1 9.638,2.44 5.22,5.22 0 0 0 9.316,1.984 Z M 9.638,2.44 A 5.22,5.22 0 0 1 9.781,2.68 5.22,5.22 0 0 0 9.638,2.44 Z M 9.781,2.68 A 5.22,5.22 0 0 1 9.91,2.927 5.22,5.22 0 0 0 9.78,2.68 Z M 9.91,2.927 A 5.22,5.22 0 0 1 10.128,3.442 5.22,5.22 0 0 0 9.91,2.927 Z m 0.218,0.515 a 5.22,5.22 0 0 1 0.221,0.807 5.22,5.22 0 0 0 -0.22,-0.807 z m 0.221,0.807 a 5.22,5.22 0 0 1 0.045,0.275 5.22,5.22 0 0 0 -0.045,-0.275 z m 0.045,0.276 a 5.22,5.22 0 0 1 0.008,0.07 5.22,5.22 0 0 1 0.018,0.156 5.22,5.22 0 0 0 -0.026,-0.226 z m -1.002,3.83 a 5.22,5.22 0 0 0 0.284,-0.42 5.22,5.22 0 0 1 -0.284,0.42 z m 1.028,-3.6 A 5.22,5.22 0 0 1 10.435,4.971 5.22,5.22 0 0 0 10.42,4.756 Z m 0.015,0.217 a 5.22,5.22 0 0 0 0,10e-4 5.22,5.22 0 0 0 0,0.001 5.22,5.22 0 0 1 0.006,0.239 5.22,5.22 0 0 0 -0.006,-0.24 z M 7.97,5.24 A 2.75,2.75 0 0 1 7.957,5.475 2.75,2.75 0 0 0 7.964,5.392 2.75,2.75 0 0 0 7.97,5.24 Z M 7.95,5.537 A 2.75,2.75 0 0 1 7.914,5.766 2.75,2.75 0 0 0 7.921,5.735 2.75,2.75 0 0 0 7.922,5.73 2.75,2.75 0 0 0 7.928,5.693 2.75,2.75 0 0 0 7.948,5.562 2.75,2.75 0 0 0 7.951,5.537 Z m 2.479,0.023 a 5.22,5.22 0 0 1 -0.008,0.1 5.22,5.22 0 0 0 0.008,-0.1 z M 7.898,5.838 a 2.75,2.75 0 0 1 -0.05,0.192 2.75,2.75 0 0 0 0.037,-0.132 2.75,2.75 0 0 0 0,-10e-4 2.75,2.75 0 0 0 0.003,-0.015 2.75,2.75 0 0 0 0.01,-0.044 z m 2.494,0.086 a 5.22,5.22 0 0 1 -0.026,0.163 5.22,5.22 0 0 0 0.026,-0.163 z m -2.576,0.2 a 2.75,2.75 0 0 1 -0.07,0.179 2.75,2.75 0 0 0 0.07,-0.18 z M 10.326,6.3 A 5.22,5.22 0 0 1 10.286,6.473 5.22,5.22 0 0 0 10.326,6.3 Z M 7.719,6.367 A 2.75,2.75 0 0 1 7.615,6.571 2.75,2.75 0 0 0 7.719,6.367 Z m 2.533,0.234 A 5.22,5.22 0 0 1 10.151,6.928 5.22,5.22 0 0 0 10.252,6.601 Z M 7.571,6.645 a 2.75,2.75 0 0 1 -0.1,0.15 2.75,2.75 0 0 0 0.1,-0.15 z m 2.547,0.376 a 5.22,5.22 0 0 1 -0.08,0.206 5.22,5.22 0 0 0 0.08,-0.206 z M 10.014,7.28 A 5.22,5.22 0 0 1 9.837,7.652 5.22,5.22 0 0 0 10.014,7.28 Z M 9.798,7.726 a 5.22,5.22 0 0 1 -0.115,0.2 5.22,5.22 0 0 0 0.115,-0.2 z"
   style="fill-opacity:1;stroke:none;stroke-width:0.264858"
   id="path12191" />
        <circle
   cx="5.2210002"
   cy="5.2210002"
   r="1.11"
   style="fill-opacity:1;stroke:none;stroke-width:0.358763"
   id="circle12193" />
    </g></g></g></g></svg>
